<svg width="568.58" height="122.1" id="516eee0e-0fcd-4fea-bad7-56213f9ec5ab" data-name="Capa 1" xmlns="http://www.w3.org/2000/svg" viewBox="0 0 568.58 122.1"><title>weblogoauc</title><path fill="#374151" d="M159.25,64.07a7.65,7.65,0,0,0-1-.55,5.6,5.6,0,0,0-3.48-.12,2.81,2.81,0,0,0-1.19.32c-0.81.42-.46,0.59-0.08,0.8a7.37,7.37,0,0,0,1.44.52,4.47,4.47,0,0,0,3.59-.11C159.25,64.49,159.92,64.62,159.25,64.07Z" transform="translate(-72 -46.19)"/><path fill="#374151" d="M135.23,154.57a1.37,1.37,0,0,0,1.47-.65c0.45-1.11,1.48-1.37,2.74-1.34,0.56,0,1.12.08,1.67,0a1.77,1.77,0,0,0,1.07-.29,1.08,1.08,0,0,0-.21-0.92c-1-1.82-2.16-3.6-3.11-5.44a1.4,1.4,0,0,0-1.5-.91c-0.28,0-.55,0-0.83.07-1.75.19-2.32-.1-2.92-1.48-0.28-.64-0.6-1.28-0.85-1.93a41.49,41.49,0,0,1-1.72-4.79,33.58,33.58,0,0,1-.45-4.31,2.9,2.9,0,0,0-.35-0.79,3.92,3.92,0,0,0-1.05.4,1.13,1.13,0,0,0-.43.81,6.37,6.37,0,0,1-1.06,3.26c-0.75,1.34-1.33,2.75-2.08,4.09a42.5,42.5,0,0,1-2.82,4.58c-1.54,2.07-3.23,4.07-4.93,6.06C117,152.07,116,153,115,154l0.11,0.36c0.66,0.07,1.33.19,2,.19C123.16,154.54,129.19,154.55,135.23,154.57Z" transform="translate(-72 -46.19)"/><path fill="#374151" d="M143,47A61.52,61.52,0,0,0,72.82,97.7a60.63,60.63,0,0,0,21,56.61c0.51-1,1-1.94,1.54-2.89,0.38-.69,1-1.29,1.32-2,1.17-2.61,3-5,4.2-7.54,0.81-1.74,2.21-2.22,4.13-2.53a27.1,27.1,0,0,0,3.93-1.1c2.11-.69,4.19-1.46,6.31-2.13,1.91-.6,3.64-1.5,5.51-2.11a51.44,51.44,0,0,0,5.38-2.08c3.48-1.59,6.91-3.26,10.36-4.89a97.93,97.93,0,0,0,10.31-6.18,12.69,12.69,0,0,0,1.33-1.15c0.21-.18.46-0.32,0.79-0.54a1.2,1.2,0,0,1,0,1.75,3.66,3.66,0,0,0-.84,2.6,3.24,3.24,0,0,1-.06.8c-0.57,2.54-1.18,5.07-1.72,7.61a18.12,18.12,0,0,0-.46,3.28c-0.06,2.32,0,4.65,0,7a4,4,0,0,0,.11,1c0.61,2.22,1.25,4.44,1.88,6.65,0.1,0.37.2,0.74,0.28,1.12,0.26,1.11.59,1.51,1.94,1.62a30.65,30.65,0,0,0,5.14.1,4.37,4.37,0,0,1,4.68,2.36,3.92,3.92,0,0,1-1,5.42,0.84,0.84,0,0,1-1.47-.24c-0.82-1.5-.88-1.49-2.88-1.49-7,0-13.94,0-20.91,0s-14.12,0-21.19.07c-0.7,0-1.39,0-2.09,0a6.73,6.73,0,0,0-3.63.93,27.31,27.31,0,0,1-2.79,1.4,60.55,60.55,0,0,0,19.13,6.42,61.52,61.52,0,0,0,70.18-50.75A60.57,60.57,0,0,0,143,47Zm26.59,21.32a7.32,7.32,0,0,1-.3,1.76c-0.09,1.84-1.41.74-2.18,0.24-1.53-1-2.17-1-3.59.09a8,8,0,0,0-2.4,2.89c-0.83,1.64-1.78,3.25-2.73,4.85-0.62,1-1.32,1.16-2.62.64a4.08,4.08,0,0,0-1.43-.35,22.54,22.54,0,0,0-3.47.16,34.18,34.18,0,0,0-10.35,2.79c-1.58.79-3.24,1.49-4.8,2.3A10.07,10.07,0,0,0,133.86,85a1.54,1.54,0,0,0-.27.68l0.3,0.22c0.35-.15.72-0.28,1.06-0.44,1.33-.62,2.63-1.29,4-1.88,1.8-.78,3.75-1.28,5.63-1.89a29.26,29.26,0,0,1,7.39-.9,12.86,12.86,0,0,1,8.76,2.29,4,4,0,0,1,.62.61,9.11,9.11,0,0,1,2.34,6.53,17,17,0,0,1-1.31,5.9,40.05,40.05,0,0,1-6.94,10.73c-3.64,4.22-8.21,7.76-12.79,11.27a67,67,0,0,1-8.85,5.7c-2,1.09-4,2.28-6,3.28q-5.31,2.59-10.76,5c-2.57,1.14-5.19,2.2-7.85,3.18s-5.15,1.71-7.71,2.58c-1.32.45-2.62,0.95-3.92,1.42a1.93,1.93,0,0,1-.64.21,8.38,8.38,0,0,1-1.12-.17,5.07,5.07,0,0,1,.36-0.79c0.51-.76,1.11-1.48,1.56-2.26,1.41-2.44,2.77-4.9,4.15-7.35s2.87-5.11,4.33-7.65c1.68-2.92,3.41-5.82,5.07-8.74,1-1.75,1.91-3.53,2.86-5.3a3.11,3.11,0,0,1,.17-0.31c2.21-3.18,3.84-6.58,5.72-9.89,1.6-2.82,3.31-5.6,4.91-8.42,1.79-3.17,3.49-6.38,5.27-9.55,2-3.53,3.88-7.09,6-10.54a25,25,0,0,1,5.28-6.41,11.88,11.88,0,0,1,3.83-2c3.71-1.24,7.49-1.09,11.26-.7A13.23,13.23,0,0,1,163.42,62c1.48,1.15,3,2.31,4.53,3.36A3.11,3.11,0,0,1,169.59,68.28Z" transform="translate(-72 -46.19)"/><path fill="#374151" d="M245.77,104.55a1.18,1.18,0,0,1-1.24,1.4h-4.62a1.11,1.11,0,0,1-1.24-1.24v-3.59a1.09,1.09,0,0,0-1.24-1.24H233.9a1.11,1.11,0,0,0-1.24,1.24v3.59a1.09,1.09,0,0,1-1.24,1.24h-4.62a1.2,1.2,0,0,1-1.24-1.4V87.08c0-5.19.82-10.71,10.1-10.71s10.1,5.52,10.1,10.71v17.47Zm-7.09-17.47c0-2-.29-3-3-3s-3,1-3,3v4.49a1.13,1.13,0,0,0,1.24,1.24h3.54a1.14,1.14,0,0,0,1.24-1.28V87.08Z" transform="translate(-72 -46.19)"/><path fill="#374151" d="M264.06,87.33a1,1,0,0,1-1.36-1,3.35,3.35,0,0,0-3.59-2.76c-1.61,0-2.6.95-2.43,1.89,0.58,3.22,13.6,3.13,13.6,12.61,0,1.24-1.4,8.53-11.17,8.53-8.65,0-10.51-5.69-10.71-8.9a1.21,1.21,0,0,1,1.07-1.36l4.66-1a1,1,0,0,1,1.36,1.07,3.38,3.38,0,0,0,3.63,3.13c2,0,3.5-1.19,3.26-2.31-0.78-3.5-13.19-2.72-13.19-12.2,0-1.24.7-8.53,9.93-8.53,8.49,0,10.47,5.52,10.71,8.49a1.21,1.21,0,0,1-1.07,1.36Z" transform="translate(-72 -46.19)"/><path fill="#374151" d="M293.53,96.68c0,2.72-.58,10-10.34,10s-10.34-7.3-10.34-10V86.38c0-2.72.58-10,10.34-10s10.34,7.29,10.34,10v10.3Zm-7.09-8.12c0-3.17-.21-5.11-3.25-5.11s-3.26,1.94-3.26,5.11V94.5c0,3.17.21,5.11,3.26,5.11s3.25-1.94,3.25-5.11V88.56Z" transform="translate(-72 -46.19)"/><path fill="#374151" d="M296.82,86.38c0-2.72.58-10,10.34-10,8.78,0,10.14,5.89,10.3,9.06a1.08,1.08,0,0,1-.91,1.15l-4.57,1a1.38,1.38,0,0,1-1.65-1.28c-0.21-1.81-.95-2.88-3.17-2.88-3,0-3.25,1.94-3.25,5.11V94.5c0,3.17.21,5.11,3.25,5.11,2.27,0,2.88-1.07,3.13-3a1.29,1.29,0,0,1,1.61-1.19l4.66,1a1.1,1.1,0,0,1,.91,1.19c-0.16,3.13-1.52,9-10.3,9-9.77,0-10.34-7.3-10.34-10V86.38Z" transform="translate(-72 -46.19)"/><path fill="#374151" d="M326.08,77.11a1.09,1.09,0,0,1,1.24,1.24v26.37a1.11,1.11,0,0,1-1.24,1.24h-4.53a1.13,1.13,0,0,1-1.24-1.24V78.34a1.11,1.11,0,0,1,1.24-1.24h4.53Z" transform="translate(-72 -46.19)"/><path fill="#374151" d="M351.42,104.55a1.18,1.18,0,0,1-1.24,1.4h-4.62a1.11,1.11,0,0,1-1.24-1.24v-3.59a1.09,1.09,0,0,0-1.24-1.24h-3.54a1.11,1.11,0,0,0-1.24,1.24v3.59a1.09,1.09,0,0,1-1.24,1.24h-4.62a1.2,1.2,0,0,1-1.24-1.4V87.08c0-5.19.82-10.71,10.1-10.71s10.1,5.52,10.1,10.71v17.47Zm-7.09-17.47c0-2-.29-3-3-3s-3,1-3,3v4.49a1.13,1.13,0,0,0,1.24,1.24h3.54a1.14,1.14,0,0,0,1.24-1.28V87.08Z" transform="translate(-72 -46.19)"/><path fill="#374151" d="M354.92,86.38c0-2.72.58-10,10.34-10,8.78,0,10.14,5.89,10.3,9.06a1.08,1.08,0,0,1-.91,1.15l-4.57,1a1.38,1.38,0,0,1-1.65-1.28c-0.21-1.81-.95-2.88-3.17-2.88-3,0-3.26,1.94-3.26,5.11V94.5c0,3.17.21,5.11,3.26,5.11,2.27,0,2.88-1.07,3.13-3A1.29,1.29,0,0,1,370,95.44l4.66,1a1.1,1.1,0,0,1,.91,1.19c-0.16,3.13-1.52,9-10.3,9-9.77,0-10.34-7.3-10.34-10V86.38Z" transform="translate(-72 -46.19)"/><path fill="#374151" d="M384.17,77.11a1.09,1.09,0,0,1,1.24,1.24v26.37a1.11,1.11,0,0,1-1.24,1.24h-4.53a1.13,1.13,0,0,1-1.24-1.24V78.34a1.11,1.11,0,0,1,1.24-1.24h4.53Z" transform="translate(-72 -46.19)"/><path fill="#374151" d="M409.8,96.68c0,2.72-.58,10-10.34,10s-10.34-7.3-10.34-10V86.38c0-2.72.58-10,10.34-10s10.34,7.29,10.34,10v10.3Zm-5.6-28.8c0.91-.74.66-1.52-0.54-1.52h-4.33a1.94,1.94,0,0,0-1.52.66l-3.3,3.67c-0.7.82-.41,1.52,0.7,1.52h2.72a2.23,2.23,0,0,0,1.52-.54Zm-1.48,20.69c0-3.17-.21-5.11-3.25-5.11s-3.25,1.94-3.25,5.11V94.5c0,3.17.21,5.11,3.25,5.11s3.25-1.94,3.25-5.11V88.56Z" transform="translate(-72 -46.19)"/><path fill="#374151" d="M420.8,77.11a1.42,1.42,0,0,1,1.44.95l5.6,13.72c0.17,0.37.5,0.29,0.5-.12V78.34a1.11,1.11,0,0,1,1.24-1.24h4.62a1.09,1.09,0,0,1,1.24,1.24v26.37a1.11,1.11,0,0,1-1.24,1.24h-6.06a1.42,1.42,0,0,1-1.44-.95l-5.6-13.72c-0.16-.37-0.5-0.29-0.5.12v13.31a1.11,1.11,0,0,1-1.24,1.24h-4.62a1.13,1.13,0,0,1-1.24-1.24V78.34a1.11,1.11,0,0,1,1.24-1.24h6.06Z" transform="translate(-72 -46.19)"/><path fill="#374151" d="M457.51,77.11a1.09,1.09,0,0,1,1.24,1.24V94.5c0,3.17.21,5.11,3.26,5.11s3.26-1.94,3.26-5.11V78.34a1.11,1.11,0,0,1,1.24-1.24h4.62a1.09,1.09,0,0,1,1.24,1.24V96.68c0,2.72-.58,10-10.34,10s-10.34-7.3-10.34-10V78.34a1.11,1.11,0,0,1,1.24-1.24h4.62Z" transform="translate(-72 -46.19)"/><path fill="#374151" d="M497.93,103.73a1.46,1.46,0,0,1-1.36,2.23h-4.7a1,1,0,0,1-.95-0.58l-4.28-8.28a0.43,0.43,0,0,0-.33-0.21h-1.65a1.23,1.23,0,0,0-1.28,1.28v6.51a1.23,1.23,0,0,1-1.28,1.28h-4.62a1.23,1.23,0,0,1-1.28-1.28V78.38a1.23,1.23,0,0,1,1.28-1.28h9c7.33,0,10.3,3.13,10.3,9.89,0,3.83-.95,6.51-3.13,8.08a0.44,0.44,0,0,0-.12.54ZM484.67,84.19a1.23,1.23,0,0,0-1.28,1.28v3a1.23,1.23,0,0,0,1.28,1.28h2.1c2,0,3-.24,3-2.8s-1-2.8-3-2.8h-2.1Z" transform="translate(-72 -46.19)"/><path fill="#374151" d="M506.25,77.11a1.09,1.09,0,0,1,1.24,1.24V94.5c0,3.17.21,5.11,3.26,5.11S514,97.67,514,94.5V78.34a1.11,1.11,0,0,1,1.24-1.24h4.62a1.09,1.09,0,0,1,1.24,1.24V96.68c0,2.72-.58,10-10.34,10s-10.34-7.3-10.34-10V78.34a1.11,1.11,0,0,1,1.24-1.24h4.62Z" transform="translate(-72 -46.19)"/><path fill="#374151" d="M524.55,86.38c0-2.72.58-10,10.34-10,8.65,0,10.09,5.69,10.3,8.9a1.21,1.21,0,0,1-1.07,1.36l-4.66,1a1,1,0,0,1-1.36-1.07c-0.16-2-.86-3.13-3.21-3.13-3,0-3.26,1.94-3.26,5.11V94.5c0,3.17.21,5.11,3.26,5.11s3.26-1.94,3.26-4h-2.39a1.13,1.13,0,0,1-1.24-1.24v-3.3a1.11,1.11,0,0,1,1.24-1.24H544a1.09,1.09,0,0,1,1.24,1.24v5.57c0,2.72-.58,10-10.34,10s-10.34-7.3-10.34-10V86.38Z" transform="translate(-72 -46.19)"/><path fill="#374151" d="M554.46,77.11a1.09,1.09,0,0,1,1.24,1.24V94.5c0,3.17.2,5.11,3.25,5.11s3.26-1.94,3.26-5.11V78.34a1.11,1.11,0,0,1,1.24-1.24h4.62a1.09,1.09,0,0,1,1.24,1.24V96.68c0,2.72-.58,10-10.34,10s-10.34-7.3-10.34-10V78.34a1.11,1.11,0,0,1,1.24-1.24h4.62Z" transform="translate(-72 -46.19)"/><path fill="#374151" d="M593.15,104.55a1.18,1.18,0,0,1-1.24,1.4H587.3a1.11,1.11,0,0,1-1.24-1.24v-3.59a1.09,1.09,0,0,0-1.24-1.24h-3.54a1.11,1.11,0,0,0-1.24,1.24v3.59a1.09,1.09,0,0,1-1.24,1.24H574.2a1.2,1.2,0,0,1-1.24-1.4V87.08c0-5.19.82-10.71,10.1-10.71s10.09,5.52,10.09,10.71v17.47Zm-7.09-17.47c0-2-.29-3-3-3s-3,1-3,3v4.49a1.13,1.13,0,0,0,1.24,1.24h3.54a1.14,1.14,0,0,0,1.24-1.28V87.08Z" transform="translate(-72 -46.19)"/><path fill="#374151" d="M602.67,77.11a1.34,1.34,0,0,1,1.4.95l3,7.67c0.16,0.37.41,0.37,0.58,0l3-7.67a1.34,1.34,0,0,1,1.4-.95H618a0.92,0.92,0,0,1,.95,1.44L611.61,95a1,1,0,0,0-.08.5v9.19A1.11,1.11,0,0,1,610.3,106h-5.77a1.13,1.13,0,0,1-1.24-1.24V95.53a1,1,0,0,0-.08-0.5l-7.42-16.48a0.92,0.92,0,0,1,.95-1.44h5.93Z" transform="translate(-72 -46.19)"/><path fill="#374151" d="M640.58,104.55a1.18,1.18,0,0,1-1.24,1.4h-4.62a1.11,1.11,0,0,1-1.24-1.24v-3.59a1.09,1.09,0,0,0-1.24-1.24h-3.54a1.11,1.11,0,0,0-1.24,1.24v3.59a1.09,1.09,0,0,1-1.24,1.24h-4.62a1.2,1.2,0,0,1-1.24-1.4V87.08c0-5.19.82-10.71,10.1-10.71s10.09,5.52,10.09,10.71v17.47Zm-7.09-17.47c0-2-.29-3-3-3s-3,1-3,3v4.49a1.13,1.13,0,0,0,1.24,1.24h3.54a1.14,1.14,0,0,0,1.24-1.28V87.08Z" transform="translate(-72 -46.19)"/><path fill="#374151" d="M236,122.55c7.75,0,10.3,3.13,10.3,9.89v9c0,6.76-2.56,9.93-10.3,9.93h-9.19a1.13,1.13,0,0,1-1.24-1.24V123.83a1.14,1.14,0,0,1,1.24-1.28H236Zm0.12,21.76c2,0,3-.33,3-2.8v-9.07c0-2.55-1-2.8-3-2.8H233.9a1.11,1.11,0,0,0-1.24,1.24v12.2a1.13,1.13,0,0,0,1.24,1.24h2.23Z" transform="translate(-72 -46.19)"/><path fill="#374151" d="M268.56,122.55a1.09,1.09,0,0,1,1.24,1.24v4.62a1.11,1.11,0,0,1-1.24,1.24h-10a1.11,1.11,0,0,0-1.24,1.24v1.32a1.13,1.13,0,0,0,1.24,1.24H265a1.09,1.09,0,0,1,1.24,1.24v4.62a1.11,1.11,0,0,1-1.24,1.24h-6.39a1.11,1.11,0,0,0-1.24,1.24v1.32a1.13,1.13,0,0,0,1.24,1.24h10a1.09,1.09,0,0,1,1.24,1.24v4.62a1.09,1.09,0,0,1-1.24,1.24H251.25a1.13,1.13,0,0,1-1.24-1.24V123.79a1.11,1.11,0,0,1,1.24-1.24h17.31Z" transform="translate(-72 -46.19)"/><path fill="#374151" d="M284.91,131.82c0-2.72.58-10,10.34-10,8.78,0,10.14,5.89,10.3,9.06a1.08,1.08,0,0,1-.91,1.15l-4.57,1a1.38,1.38,0,0,1-1.65-1.28c-0.21-1.81-.95-2.88-3.17-2.88-3,0-3.25,1.94-3.25,5.11v5.93c0,3.17.21,5.11,3.25,5.11,2.27,0,2.88-1.07,3.13-3a1.29,1.29,0,0,1,1.61-1.19l4.66,1a1.09,1.09,0,0,1,.91,1.19c-0.16,3.13-1.52,9-10.3,9-9.77,0-10.34-7.3-10.34-10v-10.3Z" transform="translate(-72 -46.19)"/><path fill="#374151" d="M326.94,122.55a1.09,1.09,0,0,1,1.24,1.24v4.62a1.11,1.11,0,0,1-1.24,1.24H317a1.11,1.11,0,0,0-1.24,1.24v1.32a1.13,1.13,0,0,0,1.24,1.24h6.39a1.09,1.09,0,0,1,1.24,1.24v4.62a1.11,1.11,0,0,1-1.24,1.24H317a1.11,1.11,0,0,0-1.24,1.24v1.32a1.13,1.13,0,0,0,1.24,1.24h10a1.09,1.09,0,0,1,1.24,1.24v4.62a1.09,1.09,0,0,1-1.24,1.24H309.63a1.13,1.13,0,0,1-1.24-1.24V123.79a1.11,1.11,0,0,1,1.24-1.24h17.31Z" transform="translate(-72 -46.19)"/><path fill="#374151" d="M338.35,130.87a1.09,1.09,0,0,0-1.24-1.24h-5.76a1.13,1.13,0,0,1-1.24-1.24v-4.62a1.11,1.11,0,0,1,1.24-1.24h21.1a1.09,1.09,0,0,1,1.24,1.24v4.62a1.11,1.11,0,0,1-1.24,1.24h-5.77a1.11,1.11,0,0,0-1.24,1.24v19.29a1.11,1.11,0,0,1-1.24,1.24h-4.62a1.13,1.13,0,0,1-1.24-1.24V130.87Z" transform="translate(-72 -46.19)"/><path fill="#374151" d="M377.87,149.17a1.46,1.46,0,0,1-1.36,2.23h-4.7a1,1,0,0,1-.95-0.58l-4.28-8.28a0.43,0.43,0,0,0-.33-0.21H364.6a1.23,1.23,0,0,0-1.28,1.28v6.51A1.23,1.23,0,0,1,362,151.4h-4.62a1.23,1.23,0,0,1-1.28-1.28V123.83a1.23,1.23,0,0,1,1.28-1.28h9c7.33,0,10.3,3.13,10.3,9.89,0,3.83-.95,6.51-3.13,8.08a0.44,0.44,0,0,0-.12.54ZM364.6,129.64a1.23,1.23,0,0,0-1.28,1.28v3a1.24,1.24,0,0,0,1.28,1.28h2.1c2,0,3-.25,3-2.8s-1-2.8-3-2.8h-2.1Z" transform="translate(-72 -46.19)"/><path fill="#374151" d="M399.13,122.55a1.09,1.09,0,0,1,1.24,1.24v4.62a1.11,1.11,0,0,1-1.24,1.24h-10a1.11,1.11,0,0,0-1.24,1.24v1.32a1.13,1.13,0,0,0,1.24,1.24h6.39a1.09,1.09,0,0,1,1.24,1.24v4.62a1.11,1.11,0,0,1-1.24,1.24h-6.39a1.11,1.11,0,0,0-1.24,1.24v1.32a1.13,1.13,0,0,0,1.24,1.24h10a1.09,1.09,0,0,1,1.24,1.24v4.62a1.09,1.09,0,0,1-1.24,1.24H381.82a1.13,1.13,0,0,1-1.24-1.24V123.79a1.11,1.11,0,0,1,1.24-1.24h17.31Z" transform="translate(-72 -46.19)"/><path fill="#374151" d="M425.25,149.17a1.46,1.46,0,0,1-1.36,2.23h-4.7a1,1,0,0,1-.95-0.58L414,142.54a0.43,0.43,0,0,0-.33-0.21H412a1.23,1.23,0,0,0-1.28,1.28v6.51a1.23,1.23,0,0,1-1.28,1.28h-4.62a1.23,1.23,0,0,1-1.28-1.28V123.83a1.23,1.23,0,0,1,1.28-1.28h9c7.33,0,10.3,3.13,10.3,9.89,0,3.83-.95,6.51-3.13,8.08a0.44,0.44,0,0,0-.12.54ZM412,129.64a1.23,1.23,0,0,0-1.28,1.28v3a1.24,1.24,0,0,0,1.28,1.28h2.1c2,0,3-.25,3-2.8s-1-2.8-3-2.8H412Z" transform="translate(-72 -46.19)"/><path fill="#374151" d="M431.47,117.11a2.22,2.22,0,0,1-1.52.54h-2.72c-1.11,0-1.4-.7-0.7-1.53l3.3-3.66a1.93,1.93,0,0,1,1.52-.66h4.33c1.19,0,1.44.78,0.54,1.52Zm2.27,5.44a1.09,1.09,0,0,1,1.24,1.24v26.37a1.11,1.11,0,0,1-1.24,1.24h-4.53a1.13,1.13,0,0,1-1.24-1.24V123.79a1.11,1.11,0,0,1,1.24-1.24h4.53Z" transform="translate(-72 -46.19)"/><path fill="#374151" d="M459.08,150a1.18,1.18,0,0,1-1.24,1.4h-4.62a1.11,1.11,0,0,1-1.24-1.24v-3.59a1.09,1.09,0,0,0-1.24-1.24h-3.54a1.11,1.11,0,0,0-1.24,1.24v3.59a1.09,1.09,0,0,1-1.24,1.24h-4.62a1.2,1.2,0,0,1-1.24-1.4V132.52c0-5.19.82-10.71,10.1-10.71s10.09,5.52,10.09,10.71V150ZM452,132.52c0-2-.29-3-3-3s-3,1-3,3V137a1.13,1.13,0,0,0,1.24,1.24h3.54A1.14,1.14,0,0,0,452,137v-4.45Z" transform="translate(-72 -46.19)"/></svg>