<?xml version="1.0" encoding="utf-8"?>
<!-- Generator: Adobe Illustrator 24.1.3, SVG Export Plug-In . SVG Version: 6.00 Build 0)  -->
<svg version="1.1" id="Capa_1" xmlns="http://www.w3.org/2000/svg" xmlns:xlink="http://www.w3.org/1999/xlink" x="0px" y="0px"
	 viewBox="0 0 395 92" style="enable-background:new 0 0 395 92;" xml:space="preserve">
<style type="text/css">
	.st0{fill-rule:evenodd;clip-rule:evenodd;fill:#F0C24F;}
	.st1{fill-rule:evenodd;clip-rule:evenodd;fill:#857E82;}
	.st2{fill:#857E82;}
</style>
<g>
	<path class="st0" d="M14,45.9c0-16.3,13.2-29.5,29.5-29.5C59.8,16.4,73,29.6,73,45.9S59.8,75.4,43.5,75.4S14,62.2,14,45.9z"/>
</g>
<g>
	<g>
		<g>
			<path class="st1" d="M69.8,59.4c0,0.3-0.2,0.4-0.6,0.4C69.1,59.6,69.4,59.4,69.8,59.4z"/>
			<path class="st1" d="M57.8,72.9c0.2,0.1,0.1,0.4,0,0.5C57.6,73.3,57.8,72.9,57.8,72.9z"/>
			<path class="st1" d="M50.6,76.7c0.1,0,0.1,0.1,0.2,0.2c0,0.1-0.1,0.1-0.3,0.1C50.5,76.8,50.5,76.8,50.6,76.7z"/>
			<path class="st1" d="M35.9,25.6c0-0.5-0.5-0.9-0.8-1.3c-0.1-0.4-0.3-0.7-0.5-1s-0.8-0.4-0.8-0.9c0.7,0.1,1.8,0.2,2.4,0.6
				c1.8,0.4,3.3,1.5,4.7,2.5c0.6,0.5,1.2,1,1.7,1.6s0.9,1.3,1.5,1.8c1,0.9,2,1.6,2.9,2.6c0.2,0.2,0.3,0.6,0.6,0.8
				c0.9,0.9,2.1,1.5,3,2.5c0.3,0,0.7-0.1,1,0c0.5,0.1,1.2,0.4,1.5,0.6c0.6,0.3,0.9,1,1.5,1.2c0.2,0.1,0.6,0.1,0.7,0.2
				c0.4,0.3,0.4,0.9,0.5,1.4c0.7,0.5,1.5,0.4,2.4,0.6c0.3,0.1,0.8,0.3,1.3,0.4c2.3,0.2,5.1-0.4,6.7,0.6c0.5,0.4,1.2,1.1,1.5,1.7
				c0.2,0.5,0.5,1.3,0.5,1.7c0,0.8-0.6,1.1-0.8,1.8c-0.1,0.3,0,0.7-0.1,1s-0.6,0.9-0.9,0.9c-0.5-0.1-0.3-1.1-0.9-1.3
				c-1.3-0.2-2.1,0.9-2.8,1.6c-0.4,0.4-0.9,0.8-1.4,1.3c-0.6,0.7-1.4,1.4-1.1,2.8c0,0.2,0.2,0.3,0.3,0.5c0.4,0.6,0.5,1.5,0.7,2.3
				c0.1,0.4,0.3,0.7,0.4,1.3c0.7,0.3,1.6-0.5,2.2-0.5c0.5,0,1.2,0.5,1.2,1c-0.7,0-0.5-0.8-1.2-0.6c-0.3,0.1-0.4,0.5-0.3,0.8
				c0.2,0.7,2.4,0.5,2,1.6c-0.4,0.1-0.4-0.4-0.8-0.5c-0.2,0-0.4,0.2-0.6,0.2c-0.2,0-0.3-0.2-0.6-0.3c-0.6-0.2-1.2,0.1-1.9,0
				c-0.1,1.1,0.2,2.2,0.5,3c0.7,0.3,1.8-0.4,2.6-0.5c0.7-0.1,1.8,0.1,2.7,0c1.2-0.1,2.3-0.8,2.9-0.7c0.2,0,0.5,0.2,0.5,0.5
				c-0.9-0.2-1.3,0.4-1.9,0.7c0.3,0.4,1.2,0.4,1.8,0.3c0.5,0.4,1.5,0.2,2,0.6c-0.2,0.3-0.4,0-0.7,0.1c-0.3,0.1-0.5,0.4-0.8,0.4
				c-0.4,0-1-0.7-1.4-0.2c0,0.4,0.6,0.2,0.6,0.6c-0.4,0.5-1.1,0-1.5-0.2c-0.2-0.1-0.5-0.1-0.8-0.2c-0.7-0.2-1.5-0.3-2.5-0.4
				c-0.2,0.3-0.6,0.5-0.9,0.7c0,0.6,0.7,0.5,0.7,1c-0.8,0.3-1.4-0.7-1.3-1.6c-0.5-0.1-0.9-0.2-1.2-0.5c-1,0.1-1.6,1.1-1.4,2.2
				c0,0.2,0.2,0.4,0.2,0.6c0,0.4-0.6,1-0.8,1s-0.4-0.3-0.6-0.4c-0.3-0.1-0.4,0.2-0.7,0.2s-0.5-0.2-0.9-0.1c-0.3-0.3-0.5-0.5-0.8-0.8
				c0.1-0.6-0.1-1.1-0.6-1c-0.3,0.1-0.2,0.4-0.4,0.9c-0.2,0.8-0.5,1.6-1.1,1.9c0.7,1.7,1.1,4.3,1.7,6.2c0.1,0.4,0.5,1.2,0.3,1.8
				c-0.2,0.4-1,0.8-1.6,0.6c-0.4-0.1-0.5-0.6-1-0.7c0.1,0.9,0.3,2.5-0.3,3.1c-0.5,0.3-0.9,0.1-1.4,0.4c-1.3-0.1-0.7-1.9-1-2.8
				c-0.6,0.5-0.4,1.7-0.7,2.4c-0.2,0.5-0.9,1.3-1.6,0.7c-0.3-0.2-0.8-1.5-0.9-1.9c-0.2-0.8,0-1.7-0.3-2.3c-0.4,0.2-0.3,0.8-0.4,1.2
				c-0.1,0.7-0.2,1.7-0.4,2.4c-0.1,0.4-0.4,1.3-0.3,1.8c-0.5,0.4-0.6,1.3-1.4,1.3c-0.5,0-0.9-0.3-1.3-0.6c-0.1-0.9-0.1-1.8-0.2-2.7
				c0-0.3-0.2-0.6-0.3-0.8c-0.1-0.9-0.1-2,0.2-2.7c0.1-0.4,0.7-0.8,0.1-1.2c-0.4,0.2-0.3,0.9-0.7,1.1c0.1,0.4-0.3,0.8-0.4,1.3
				c0,0.2,0,0.4,0,0.6c-0.1,0.2-0.3,0.5-0.4,0.7c-0.1,0.3-0.1,0.6-0.3,0.8c-0.2,0.2-0.5,0.3-0.6,0.6c-0.1,0.2,0,0.5-0.2,0.8
				c-0.2,0.5-0.9,1.2-1.5,1.2c-0.7,0.1-1.4-0.6-1.6-1.2c-0.3-1.1,0.8-1.9,0.4-2.7c-0.9,0.4-0.8,1.9-1.8,2.2
				c-0.3,0.1-0.8-0.2-1.2-0.1s-0.6,0.6-0.7,0.9c-0.9,0.1-1.9,0-2.2-0.6c0.1-0.4,0.2-1,0-1.4c-0.7-0.3-1.5-0.6-1.5-1.3
				c-0.1-0.7,0.7-1.2,0.7-1.7c0-0.4-0.5-0.4-0.6-0.7c-0.2-1,0.9-2.1,1.4-2.6c0.2-0.2,0.6-0.4,0.6-0.7c0.1-0.4-0.3-0.9-0.2-1.5
				c0.2-0.8,2.1-1.9,2.8-2.4c2-1.6,3.6-3.1,5.6-4.8c0.5-0.4,1-0.8,1.4-1.3c0.5-0.6,1.5-1.2,1.6-2c0-0.2,0-0.5,0-0.7s0.4-0.8,0.6-1.1
				c0.2-0.3,0.6-0.4,0.6-0.7c0-0.4-0.3-0.5-0.6-0.7c-0.1-0.7-0.6-0.9-1.2-1.3c-0.5-0.4-1.1-1.2-1.7-1.3c-0.4,0-0.8,0.2-1.2,0.2
				c-0.5-0.1-0.9-0.8-1.4-1.3c-0.2-0.1-0.4-0.2-0.6-0.3c-0.2-0.2-0.4-0.5-0.6-0.7c-0.4-0.3-0.8-0.4-1-0.7c-0.3-0.3-0.4-0.7-0.7-1
				c-0.2-0.1-0.4-0.1-0.5-0.3c-0.6-0.4-0.9-1.1-1.5-1.6c-1.4,0.3-1.7-0.9-2.2-1.6c-0.4-0.2-0.8,0-1.1-0.1c-0.7-0.2-1-1-1.9-1
				c-0.3-0.3-0.2-0.7-0.6-1c-0.2-0.1-0.4-0.1-0.6-0.2c-0.7-0.3-0.9-0.9-0.4-1.6c-0.2-0.4-0.6-0.1-0.9-0.2c-0.9-0.1-1.8-0.9-2.1-1.6
				c-0.4-0.2-1-0.3-1.4-0.7C24.4,36.9,24,36.3,24,36s0.7-0.4,0.7-0.7c0-0.4-0.4-0.2-0.8-0.4c-0.2-0.1-0.6-0.2-0.9-0.4
				c-0.7-0.3-1.7-1-1.6-1.4c0-0.4,0.3-0.2,0.5-0.5C21.8,32.2,21.4,32,21,32c-0.6-0.5-1.5-0.8-1.3-1.9c0.1-0.2,0.5-0.1,0.7-0.4
				c0-0.4-0.4-0.3-0.6-0.5c-0.5-0.7-1.2-1.2-1.2-2.4c0.2-0.3,1,0,1.1-0.4c0-0.6-0.6-0.8-0.8-1.3c-0.4-0.7-0.4-1.8-0.3-2.7
				c0.4,0,1.6,1.2,1.8,0.2c0.2-0.8-0.7-1.4-0.9-2c-0.1-0.2-0.1-0.5-0.2-0.8c-0.1-0.4-0.6-1.5-0.4-1.7c0.5,0,0.6,0.9,1.2,1.1
				c0.1-0.7-1.8-2.6-1.5-3.4c0.6,0,1.8,2.7,2.4,2.5c0.2-0.5-2.1-2.8-1.7-3.4c0.6-0.4,5.3,4.9,7.5,5.7c1,0.2,2,0.9,2.9,1.3
				c1.1,0.5,2.2,1.1,3.3,1.7c0.3,0.2,0.6,0.4,0.9,0.5c0.2,0.1,0.3,0,0.5,0.1C34.9,25,35.3,25.5,35.9,25.6z M69.2,59.8
				c0.3,0,0.6-0.1,0.6-0.4C69.4,59.4,69.1,59.6,69.2,59.8z M57.8,73.3c0.1-0.1,0.2-0.4,0-0.5C57.8,72.9,57.6,73.3,57.8,73.3z
				 M50.5,76.9c0.1,0,0.2,0,0.3-0.1c-0.1,0-0.1-0.1-0.2-0.2C50.5,76.8,50.5,76.8,50.5,76.9z"/>
		</g>
	</g>
</g>
<g>
	<path class="st2" d="M92,32.8h4.6v29.5H92V32.8z"/>
	<path class="st2" d="M105.2,41v21.4H101V32.8h5.8l4.8,17.7V32.8h4.1v29.5H111L105.2,41z"/>
	<path class="st2" d="M118.8,32.8h14.3V37h-4.9v25.3h-4.6V37.1h-4.8L118.8,32.8L118.8,32.8z"/>
	<path class="st2" d="M140.8,45.3h6.4v4.2h-6.4v8.6h8v4.2h-12.6V32.8h12.6V37h-8V45.3z"/>
	<path class="st2" d="M162.4,62.3c-0.2-0.8-0.4-1.2-0.4-3.6v-4.6c0-2.7-0.9-3.8-3-3.8h-1.6v12h-4.6V32.8h7c4.8,0,6.9,2.2,6.9,6.8
		v2.3c0,3-1,5-3,6c2.3,1,3.1,3.2,3.1,6.3v4.5c0,1.4,0,2.5,0.5,3.6L162.4,62.3L162.4,62.3z M157.4,37.1v9.1h1.8
		c1.7,0,2.8-0.8,2.8-3.1v-2.9c0-2.1-0.7-3-2.4-3L157.4,37.1L157.4,37.1z"/>
	<path class="st2" d="M184.2,51.3v3.9c0,4.7-2.4,7.4-6.9,7.4s-6.9-2.7-6.9-7.4V39.9c0-4.7,2.4-7.4,6.9-7.4s6.9,2.7,6.9,7.4v2.9h-4.4
		v-3.2c0-2.1-0.9-2.9-2.4-2.9s-2.4,0.8-2.4,2.9v15.9c0,2.1,0.9,2.9,2.4,2.9s2.4-0.8,2.4-2.9v-4.2H184.2L184.2,51.3z"/>
	<path class="st2" d="M192.7,45.3h6.4v4.2h-6.4v8.6h8v4.2H188V32.8h12.6V37h-8L192.7,45.3L192.7,45.3z"/>
	<path class="st2" d="M218.3,40.1V44c0,4.7-2.3,7.3-6.9,7.3h-2.2v11.1h-4.6V32.8h6.8C216.1,32.8,218.3,35.4,218.3,40.1z M209.2,37.1
		v10h2.2c1.5,0,2.3-0.7,2.3-2.8v-4.4c0-2.1-0.8-2.8-2.3-2.8H209.2L209.2,37.1z"/>
	<path class="st2" d="M220.4,32.8h14.3V37h-4.9v25.3h-4.6V37.1h-4.9L220.4,32.8L220.4,32.8z"/>
	<path class="st2" d="M251.2,62.3h-4.7l-0.8-5.3H240l-0.8,5.3H235l4.7-29.5h6.8L251.2,62.3z M240.6,53h4.5l-2.2-14.9L240.6,53z"/>
	<path class="st2" d="M265.8,55.2c0,3.2,1.2,5.6,4.4,5.6c3.2,0,4.4-2.4,4.4-5.6V32.8h1.8v22.3c0,4.2-1.8,7.5-6.3,7.5
		s-6.3-3.2-6.3-7.5V32.8h1.9L265.8,55.2L265.8,55.2z"/>
	<path class="st2" d="M287,32.8c4.5,0,6.3,2.5,6.3,6.7v2.6c0,3.5-1.4,5.4-4.3,6.1c3,0.7,4.3,2.8,4.3,6v4.6c0,1.2,0.1,2.6,0.7,3.5h-2
		c-0.5-0.9-0.6-1.9-0.6-3.5v-4.6c0-3.9-2.1-5-5.5-5h-3.1v13.2h-1.9V32.8C280.8,32.8,287,32.8,287,32.8z M285.9,47.4
		c3.5,0,5.5-1,5.5-4.9v-2.8c0-3.2-1.2-5.1-4.4-5.1h-4.2v12.8H285.9z"/>
	<path class="st2" d="M300,55.2c0,3.2,1.2,5.6,4.4,5.6s4.4-2.4,4.4-5.6V32.8h1.8v22.3c0,4.2-1.8,7.5-6.3,7.5s-6.3-3.2-6.3-7.5V32.8
		h1.9L300,55.2L300,55.2z"/>
	<path class="st2" d="M327.6,40v2.2h-1.9v-2.3c0-3.2-1.2-5.6-4.5-5.6c-3.2,0-4.5,2.4-4.5,5.6v15.3c0,3.2,1.2,5.5,4.5,5.5
		c3.2,0,4.5-2.4,4.5-5.5v-6.4h-3.9V47h5.8v8c0,4.3-1.9,7.5-6.4,7.5s-6.4-3.2-6.4-7.5V40c0-4.3,1.9-7.5,6.4-7.5S327.6,35.8,327.6,40z
		"/>
	<path class="st2" d="M333.8,55.2c0,3.2,1.2,5.6,4.4,5.6c3.2,0,4.4-2.4,4.4-5.6V32.8h1.8v22.3c0,4.2-1.8,7.5-6.3,7.5
		s-6.3-3.2-6.3-7.5V32.8h1.9L333.8,55.2L333.8,55.2z"/>
	<path class="st2" d="M351.7,55.8l-1.5,6.5h-1.8l6.5-29.5h2.8l6.6,29.5h-1.9l-1.5-6.5H351.7z M352,54.1h8.6L356.2,35L352,54.1z"/>
	<path class="st2" d="M372.4,51l-6.6-18.2h2l5.6,15.5l5.6-15.5h1.9L374.3,51v11.3h-1.9V51L372.4,51z"/>
</g>
</svg>
